<svg xmlns="http://www.w3.org/2000/svg" viewBox="0 0 36 56" width="36" height="56" class="dd-glyph-svg dd-glyph-elevated" aria-hidden="true">
  <path fill="none" d="M0 0H36V56H0z"></path>
  <path d="M29 10H7a7 7 0 0 0-7 7v22a7 7 0 0 0 7 7h22a7 7 0 0 0 7-7V17a7 7 0 0 0-7-7zm5 29c0 2.757-2.243 5-5 5H7c-2.757 0-5-2.243-5-5V17c0-2.757 2.243-5 5-5h22c2.757 0 5 2.243 5 5v22zm-9-20h-2.038c-.195-2.46-2.329-4.405-4.962-4.405S13.233 16.54 13.038 19H11a3.5 3.5 0 0 0-3.5 3.5v13A3.5 3.5 0 0 0 11 39h14a3.5 3.5 0 0 0 3.5-3.5v-13A3.5 3.5 0 0 0 25 19zm-3.458 11.447a5.733 5.733 0 0 1-.475.873c-.246.364-.45.618-.61.754-.237.229-.5.347-.78.356-.194 0-.44-.06-.72-.178a2.019 2.019 0 0 0-.779-.178c-.246 0-.508.06-.796.178-.288.119-.517.178-.695.186-.263.009-.525-.11-.797-.364-.169-.152-.38-.407-.635-.78a5.597 5.597 0 0 1-.67-1.372 5.184 5.184 0 0 1-.279-1.635c0-.602.127-1.119.382-1.56.194-.347.465-.626.796-.83a2.151 2.151 0 0 1 1.084-.313c.212 0 .492.06.839.195.339.136.56.203.66.203.077 0 .323-.076.738-.237.39-.144.729-.203 1-.178.737.06 1.287.356 1.66.898-.66.415-.991.992-.982 1.729.008.576.211 1.058.601 1.432.186.177.39.313.61.406-.042.144-.102.28-.152.415zm-3.56-5.151c0-.44.162-.847.493-1.228.169-.196.372-.348.627-.475.245-.127.483-.203.711-.212.009.06.009.119.009.178 0 .45-.161.881-.483 1.271-.39.466-.839.678-1.348.635-.008-.05-.008-.11-.008-.17zM14.24 19c.194-1.794 1.796-3.205 3.761-3.205s3.567 1.41 3.761 3.205H14.24z"></path>
</svg>